<svg id="Layer_1" enable-background="new 0 0 512 512" height="512" viewBox="0 0 512 512" width="512" xmlns="http://www.w3.org/2000/svg"><g><path d="m76 414.691c4.142 0 7.5-3.357 7.5-7.5v-172.121h3.077c4.142 0 7.5-3.357 7.5-7.5v-77.347c0-4.143-3.358-7.5-7.5-7.5h-3.077v-114.295c0-7.405 6.023-13.428 13.428-13.428h184.231c4.142 0 7.5-3.357 7.5-7.5s-3.358-7.5-7.5-7.5h-184.231c-15.676 0-28.428 12.753-28.428 28.428v121.796c0 4.143 3.358 7.5 7.5 7.5h3.077v62.347h-3.077c-4.142 0-7.5 3.357-7.5 7.5v179.621c0 4.142 3.358 7.499 7.5 7.499z"/><path d="m436 157.724c4.142 0 7.5-3.357 7.5-7.5v-49.966c0-1.989-.79-3.896-2.197-5.304l-92.757-92.758c-1.406-1.406-3.314-2.196-5.303-2.196h-27.013c-4.142 0-7.5 3.357-7.5 7.5s3.358 7.5 7.5 7.5h23.907l88.364 88.364v39.359h-3.076c-4.142 0-7.5 3.357-7.5 7.5v77.347c0 4.143 3.358 7.5 7.5 7.5h3.076v248.502c0 7.404-6.023 13.428-13.428 13.428h-318.145c-7.404 0-13.428-6.023-13.428-13.428v-41.166c0-4.143-3.358-7.5-7.5-7.5s-7.5 3.357-7.5 7.5v41.166c0 15.675 12.752 28.428 28.428 28.428h318.145c15.675 0 28.428-12.753 28.428-28.428v-256.002c0-4.143-3.358-7.5-7.5-7.5h-3.076v-62.347h3.075z"/><path d="m332.841 409.489c4.142 0 7.5-3.357 7.5-7.5v-172.246c0-4.143-3.358-7.5-7.5-7.5h-211.682c-4.142 0-7.5 3.357-7.5 7.5v230.185c0 4.143 3.358 7.5 7.5 7.5h211.683c4.142 0 7.5-3.357 7.5-7.5v-23.459c0-4.143-3.358-7.5-7.5-7.5s-7.5 3.357-7.5 7.5v15.959h-55.842v-61.093h24.342c12.143 0 23.209-4.684 31.5-12.333v22.987c-.001 4.143 3.357 7.5 7.499 7.5zm-7.5-98.821c-8.291-7.649-19.357-12.333-31.5-12.333h-24.341v-61.092h55.841zm-125.841-12.333v-61.092h55v61.092zm-15-61.092v61.092h-24.342c-12.143 0-23.209 4.684-31.5 12.333v-73.425zm-55.841 141.759c8.291 7.649 19.357 12.333 31.5 12.333h24.341v61.093h-55.841zm125.841 73.426h-55v-61.093h55zm39.342-76.093h-133.684c-17.369 0-31.5-14.131-31.5-31.5s14.131-31.5 31.5-31.5h133.684c17.369 0 31.5 14.131 31.5 31.5s-14.132 31.5-31.5 31.5z"/><path d="m121.159 170.514c4.142 0 7.5-3.357 7.5-7.5v-111.096c0-4.143-3.358-7.5-7.5-7.5s-7.5 3.357-7.5 7.5v111.096c0 4.142 3.358 7.5 7.5 7.5z"/><path d="m239.998 119.659c4.142 0 7.5-3.357 7.5-7.5v-60.241c0-4.143-3.358-7.5-7.5-7.5s-7.5 3.357-7.5 7.5v60.241c0 4.143 3.358 7.5 7.5 7.5z"/><path d="m232.498 163.014c0 4.143 3.358 7.5 7.5 7.5s7.5-3.357 7.5-7.5v-16.386c0-4.143-3.358-7.5-7.5-7.5s-7.5 3.357-7.5 7.5z"/><path d="m168.026 143.014v-91.096c0-4.143-3.358-7.5-7.5-7.5s-7.5 3.357-7.5 7.5v91.096c0 4.143 3.358 7.5 7.5 7.5s7.5-3.358 7.5-7.5z"/><path d="m286.498 143.014v-91.096c0-4.143-3.358-7.5-7.5-7.5s-7.5 3.357-7.5 7.5v91.096c0 4.143 3.358 7.5 7.5 7.5s7.5-3.358 7.5-7.5z"/><path d="m207.355 163.014v-111.096c0-4.143-3.358-7.5-7.5-7.5s-7.5 3.357-7.5 7.5v111.096c0 4.143 3.358 7.5 7.5 7.5s7.5-3.358 7.5-7.5z"/></g></svg>