<svg height="512pt" viewBox="-61 0 512 512" width="512pt" xmlns="http://www.w3.org/2000/svg"><path d="m376.800781 85.5-72.300781-72.300781c-8.699219-8.398438-19.800781-13.199219-31.800781-13.199219h-227.699219c-24.902344 0-45 20.097656-45 45v422c0 24.902344 20.097656 45 45 45h300c24.902344 0 45-20.097656 45-45v-348.699219c0-12-4.800781-24.101562-13.199219-32.800781zm0 0" fill="#ff3939"/><path d="m390 118.300781v348.699219c0 24.902344-20.097656 45-45 45h-150v-512h77.699219c12 0 23.101562 4.800781 31.800781 13.199219l72.300781 72.300781c8.398438 8.699219 13.199219 20.800781 13.199219 32.800781zm0 0" fill="#ff001e"/><path d="m315 211h-240c-8.402344 0-15 6.597656-15 15v210c0 8.402344 6.597656 15 15 15h240c8.402344 0 15-6.597656 15-15v-210c0-8.402344-6.597656-15-15-15zm0 0" fill="#ffe470"/><g fill="#ffd400"><path d="m330 226v210c0 8.402344-6.597656 15-15 15h-120v-240h120c8.402344 0 15 6.597656 15 15zm0 0"/><path d="m75 151c-8.289062 0-15-6.710938-15-15v-61c0-8.289062 6.710938-15 15-15s15 6.710938 15 15v61c0 8.289062-6.710938 15-15 15zm0 0"/><path d="m135 151c-8.289062 0-15-6.710938-15-15v-61c0-8.289062 6.710938-15 15-15s15 6.710938 15 15v61c0 8.289062-6.710938 15-15 15zm0 0"/><path d="m210 75v61c0 8.402344-6.597656 15-15 15s-15-6.597656-15-15v-61c0-8.402344 6.597656-15 15-15s15 6.597656 15 15zm0 0"/></g><path d="m255 151c-8.289062 0-15-6.710938-15-15v-61c0-8.289062 6.710938-15 15-15s15 6.710938 15 15v61c0 8.289062-6.710938 15-15 15zm0 0" fill="#fdbf00"/><path d="m90 241h30v30h-30zm0 0" fill="#fdbf00"/><path d="m150 241h90v180h-90zm0 0" fill="#fdbf00"/><path d="m270 241h30v30h-30zm0 0" fill="#ff9f00"/><path d="m270 301h30v60h-30zm0 0" fill="#ff9f00"/><path d="m270 391h30v30h-30zm0 0" fill="#ff9f00"/><path d="m90 391h30v30h-30zm0 0" fill="#fdbf00"/><path d="m90 301h30v60h-30zm0 0" fill="#fdbf00"/><path d="m195 241h45v180h-45zm0 0" fill="#ff9f00"/><path d="m210 75v61c0 8.402344-6.597656 15-15 15v-91c8.402344 0 15 6.597656 15 15zm0 0" fill="#fdbf00"/></svg>